<?xml version="1.0" standalone="no"?>
<!DOCTYPE svg PUBLIC "-//W3C//DTD SVG 20010904//EN"
 "http://www.w3.org/TR/2001/REC-SVG-20010904/DTD/svg10.dtd">
<svg version="1.0" xmlns="http://www.w3.org/2000/svg"
 width="600.000000pt" height="749.000000pt" viewBox="0 0 600.000000 749.000000"
 preserveAspectRatio="xMidYMid meet">

<g transform="translate(0.000000,749.000000) scale(0.100000,-0.100000)"
fill="#000000" stroke="none">
<path d="M3818 6755 c-4 -4 4 -32 18 -63 64 -145 123 -410 124 -552 0 -107
-19 -221 -50 -301 -29 -74 -38 -80 -46 -31 -8 53 -20 54 -28 3 -3 -22 -24 -91
-47 -155 -39 -109 -44 -119 -137 -227 -93 -109 -96 -113 -100 -168 -2 -40 3
-73 18 -116 13 -35 24 -96 27 -145 5 -76 3 -91 -20 -142 -14 -32 -28 -58 -31
-58 -2 0 -14 13 -26 30 -20 28 -20 32 -6 72 17 52 11 90 -19 120 -13 13 -56
55 -95 93 l-72 70 5 50 c5 57 1 75 -18 75 -20 0 -24 -22 -14 -75 11 -58 29
-90 76 -131 42 -37 37 -54 -16 -54 -67 0 -151 80 -126 120 9 15 -4 50 -20 50
-8 0 -16 -8 -19 -18 -11 -33 13 -83 60 -127 l47 -45 77 0 c62 0 80 -4 93 -18
19 -21 21 -45 7 -72 -10 -19 -12 -18 -46 5 -19 13 -56 27 -81 31 -32 5 -54 16
-79 40 -27 27 -41 34 -73 34 -22 0 -52 -5 -66 -10 l-26 -10 38 -37 38 -38 -32
-3 c-27 -3 -33 -8 -33 -27 0 -24 51 -75 75 -75 7 0 19 -15 26 -32 7 -18 33
-54 56 -79 l44 -47 -32 -32 c-28 -27 -38 -31 -67 -26 -19 3 -47 16 -61 29 -34
32 -73 51 -146 72 -69 19 -134 54 -255 135 -47 31 -107 71 -135 88 -27 17 -75
56 -105 87 -30 30 -58 55 -63 55 -5 0 -7 -16 -5 -35 5 -44 -5 -45 -103 -10
-193 67 -381 205 -564 415 -102 117 -141 168 -224 295 l-66 100 -3 -72 c-2
-52 3 -93 19 -145 62 -212 124 -303 394 -577 203 -206 209 -214 172 -208 -110
17 -441 218 -558 339 -36 37 -69 68 -73 68 -14 0 -4 -36 27 -93 39 -74 190
-235 291 -310 72 -54 252 -168 347 -220 28 -16 49 -30 47 -32 -7 -8 -156 26
-228 52 -41 14 -108 44 -147 66 -103 55 -97 28 20 -87 98 -97 200 -160 302
-186 28 -7 79 -21 115 -31 36 -10 84 -23 108 -29 23 -6 42 -15 42 -20 0 -8
-131 -75 -215 -110 l-30 -13 55 -24 c69 -32 159 -45 219 -33 78 16 153 38 164
49 16 16 37 13 37 -5 0 -36 -225 -237 -299 -266 -24 -10 -25 -11 -6 -18 29
-12 124 -12 170 1 52 14 155 67 224 113 29 20 58 36 63 36 6 0 8 -14 3 -37 -8
-51 -85 -285 -98 -301 -47 -59 137 42 212 117 31 31 76 90 101 131 l45 75 3
-40 c8 -86 -27 -171 -118 -287 l-22 -28 27 0 c43 0 186 73 232 117 22 23 53
62 68 87 15 25 31 46 36 46 16 0 -13 -107 -43 -159 -10 -18 -17 -36 -14 -38 8
-9 110 29 159 60 26 16 63 49 82 73 52 69 55 45 13 -99 -11 -37 -18 -71 -14
-74 19 -19 180 127 210 191 46 98 41 -38 -10 -237 -31 -124 -46 -163 -103
-262 -55 -97 -170 -215 -275 -284 -73 -48 -191 -100 -275 -121 -70 -18 -42
-20 64 -4 212 31 340 90 466 214 83 81 90 92 161 240 41 85 79 166 85 180 10
22 12 18 12 -35 1 -133 -43 -287 -112 -399 -111 -180 -191 -259 -387 -383
-180 -115 -370 -260 -370 -285 0 -4 36 17 80 47 89 59 363 199 380 193 6 -2
-15 -39 -46 -83 -58 -83 -154 -267 -154 -298 0 -10 -15 -24 -37 -34 -155 -69
-348 -162 -432 -209 -48 -28 -81 -38 -140 -45 -90 -11 -180 -52 -316 -141
-136 -90 -206 -184 -243 -328 -26 -99 -36 -249 -22 -335 24 -153 116 -323 234
-433 66 -61 112 -86 280 -156 67 -28 54 -18 -52 41 -80 44 -118 73 -175 132
-79 83 -115 147 -153 275 -33 110 -32 168 7 244 39 79 92 125 255 222 198 118
348 235 371 288 8 19 13 60 12 93 -3 65 -6 60 87 124 58 39 265 145 284 145 9
0 11 -11 6 -37 -4 -21 -13 -84 -22 -140 -15 -96 -17 -103 -56 -144 -45 -47
-74 -104 -84 -165 -7 -48 17 -175 45 -239 38 -87 149 -221 226 -274 39 -28
362 -193 440 -226 22 -10 87 -33 145 -52 88 -30 124 -36 220 -40 210 -9 329
42 451 196 23 29 39 54 37 57 -3 2 -35 -22 -71 -55 -73 -66 -133 -93 -247
-110 -162 -25 -282 19 -459 169 -110 93 -189 196 -256 335 -35 72 -71 154 -81
182 -27 77 -81 152 -146 201 l-58 43 0 58 c0 68 12 137 40 231 l20 66 120 49
c66 26 123 46 126 43 3 -3 0 -44 -6 -89 -13 -90 -6 -306 12 -394 36 -178 223
-383 414 -454 75 -29 212 -29 291 -1 31 11 60 23 64 27 5 5 -42 8 -104 8 -107
1 -116 2 -201 39 -105 44 -223 122 -272 180 -20 23 -48 68 -63 101 -45 96 -54
163 -49 352 5 141 9 180 30 243 25 80 17 71 184 200 75 58 156 165 196 260
100 238 115 545 39 795 -10 33 -22 73 -26 90 l-7 30 20 -25 c22 -29 93 -167
121 -237 10 -26 35 -88 55 -137 30 -73 37 -109 45 -201 9 -114 2 -237 -20
-330 -6 -27 -58 -146 -116 -264 -127 -259 -153 -330 -153 -423 0 -111 60 -207
169 -271 50 -29 35 -6 -31 47 -47 37 -67 63 -90 113 -28 58 -30 72 -25 131 7
82 25 128 85 212 227 318 274 415 292 595 21 230 -18 420 -142 689 -57 124
-84 167 -169 268 -52 62 -68 88 -55 88 2 0 19 -6 37 -14 42 -17 195 -49 212
-43 6 2 -11 27 -40 58 -46 49 -93 124 -93 148 0 6 17 13 38 16 81 13 130 29
192 64 l65 36 -65 5 c-60 5 -140 35 -154 58 -3 5 14 15 37 22 23 7 58 20 78
30 44 23 139 108 139 125 0 8 -23 14 -75 17 -63 4 -84 10 -130 39 -30 19 -55
38 -56 44 0 5 26 19 58 30 85 29 112 47 170 107 56 60 88 115 98 170 11 58 -2
63 -50 19 -23 -21 -58 -47 -76 -56 l-34 -18 21 24 c11 13 40 47 65 75 24 28
64 90 88 137 39 75 45 96 49 166 7 118 -2 129 -43 56 -62 -109 -210 -231 -295
-242 -22 -3 -40 -2 -40 1 0 4 27 44 59 89 80 111 146 243 161 323 14 73 9 192
-10 239 -12 30 -13 30 -31 -42 -20 -82 -55 -167 -74 -183 -11 -9 -12 22 -8
168 4 128 2 189 -7 217 -14 47 -56 115 -70 115 -6 0 -10 -32 -10 -73 0 -71
-22 -183 -40 -201 -13 -13 -17 17 -30 204 -13 182 -29 245 -101 400 -64 137
-196 340 -211 325z m172 -1070 c-15 -50 -71 -149 -110 -195 -16 -19 -30 -31
-30 -27 0 4 21 49 48 99 26 51 54 113 61 138 8 25 19 51 25 59 17 22 20 -24 6
-74z m41 -249 c-24 -38 -80 -90 -89 -82 -7 8 47 84 76 107 34 26 39 17 13 -25z
m77 -143 c-44 -62 -85 -85 -140 -81 l-43 3 64 33 c35 18 80 46 100 62 52 42
58 37 19 -17z m-300 -2 c10 -6 5 -11 -19 -20 -38 -13 -52 -5 -25 15 23 16 26
17 44 5z m8 -178 l39 -17 -29 -4 c-19 -2 -36 3 -50 17 -25 25 -11 27 40 4z
m329 -82 c9 -15 -10 -22 -85 -30 -54 -5 -76 -4 -90 6 -11 8 -20 18 -20 24 0
12 187 12 195 0z m-320 -76 c26 -21 27 -25 10 -25 -19 1 -65 32 -65 44 0 13
27 4 55 -19z m-1409 -49 c63 -23 139 -80 129 -97 -10 -15 -105 20 -158 60 -92
68 -84 78 29 37z m1371 -82 c14 -14 22 -28 19 -31 -8 -8 -58 28 -64 45 -7 21
18 13 45 -14z m228 5 l50 -19 -46 4 c-47 3 -116 37 -74 35 11 0 43 -9 70 -20z
m-326 -120 c13 -37 2 -37 -32 -1 -21 21 -24 31 -15 40 15 15 33 0 47 -39z
m-1071 -1 c-2 -6 -16 -21 -30 -31 -24 -18 -32 -19 -88 -8 -34 7 -74 18 -88 24
-26 12 -26 12 18 18 86 12 192 10 188 -3z m168 -30 c7 -11 -38 -58 -57 -58
-16 0 -10 23 13 47 24 26 34 28 44 11z m1164 -32 c32 -13 73 -27 89 -31 17 -4
34 -11 38 -17 4 -8 0 -9 -12 -4 -10 3 -52 9 -94 13 -75 6 -111 22 -111 50 0
19 22 16 90 -11z m-1068 -68 c-12 -12 -25 -18 -29 -14 -4 4 3 16 16 27 31 25
41 15 13 -13z m178 -28 c0 -19 -40 -90 -50 -90 -6 0 -10 15 -10 34 0 23 7 38
23 49 26 19 37 21 37 7z m-520 -18 c0 -5 -9 -17 -19 -26 -17 -15 -26 -16 -80
-5 -95 18 -75 34 47 38 28 0 52 -3 52 -7z m1385 -42 c68 -57 85 -80 60 -80
-29 0 -155 100 -155 122 0 21 42 3 95 -42z m-1185 32 c0 -13 -89 -96 -96 -90
-6 6 17 48 44 81 15 17 52 24 52 9z m454 -41 c-13 -21 -20 -27 -26 -18 -14 21
-9 37 15 46 30 12 32 7 11 -28z m204 17 c7 -9 4 -29 -10 -67 -23 -60 -38 -54
-38 15 0 53 25 80 48 52z m-532 -102 c-27 -66 -122 -186 -146 -186 -18 0 73
157 112 192 23 21 43 36 45 34 2 -2 -3 -20 -11 -40z m130 -110 c-58 -114 -113
-152 -64 -44 25 55 86 133 96 123 3 -3 -12 -39 -32 -79z m250 17 c4 -15 -10
-55 -42 -120 -58 -119 -68 -104 -29 46 38 148 34 139 51 116 8 -11 17 -30 20
-42z m697 -35 c15 -26 23 -48 18 -48 -13 0 -91 100 -91 117 0 25 44 -17 73
-69z m-511 -86 c-10 -46 -20 -80 -25 -76 -4 4 -7 36 -7 70 0 53 3 65 22 78 12
9 23 15 24 13 1 -1 -5 -39 -14 -85z m537 -794 c0 -75 -42 -352 -63 -423 -18
-58 -63 -131 -117 -187 -73 -77 -70 -41 10 131 64 136 104 258 131 396 33 169
39 183 39 83z m-242 -355 c-49 -117 -101 -250 -133 -342 -18 -51 -40 -101 -49
-111 -21 -24 -97 -63 -177 -94 -64 -24 -68 -24 -68 -6 0 62 120 253 251 400
56 63 109 126 117 140 9 14 30 43 46 65 40 51 46 27 13 -52z m-1217 -1015 c0
-21 -15 -38 -97 -122 -64 -65 -70 -73 -33 -46 25 17 74 56 110 86 76 63 120
73 120 27 0 -54 -102 -131 -325 -248 -49 -26 -110 -61 -135 -79 -72 -51 -71
-51 -51 7 31 90 57 131 136 215 92 98 196 171 243 172 19 0 32 -5 32 -12z
m732 -155 c22 -26 43 -70 68 -143 41 -123 111 -275 152 -330 23 -30 66 -79 97
-109 l56 -54 -34 7 c-89 16 -297 148 -389 245 -86 91 -157 241 -150 318 3 33
6 38 28 38 21 0 36 -19 102 -128 84 -141 99 -162 73 -102 -80 182 -99 248 -78
268 13 13 60 7 75 -10z"/>
</g>
</svg>
